<?xml version="1.0" encoding="utf-8"?>
<!-- Generator: Adobe Illustrator 27.7.0, SVG Export Plug-In . SVG Version: 6.00 Build 0)  -->
<svg version="1.1" id="katman_1" xmlns="http://www.w3.org/2000/svg" xmlns:xlink="http://www.w3.org/1999/xlink" x="0px" y="0px"
	 viewBox="0 0 537.6 400.1" style="enable-background:new 0 0 537.6 400.1;" xml:space="preserve">
<style type="text/css">
	.st0{display:none;fill:#E30A17;}
	.st1{display:none;fill:#FFFFFF;}
	.st2{fill:#202020;}
</style>
<path class="st0" d="M0,0h537.6v400.1H0V0z"/>
<path class="st1" d="M356.7,200l180.9-58.8L425.8,295.1V104.9l111.8,153.9L356.7,200z M369,307c-59,93.3-182.6,121.1-275.9,62
	S-28,186.4,31,93.1S213.6-28,307,31c25,15.8,46.2,37,62.1,62.1C310,27.4,208.8,22,143.1,81S72,241.2,131,307s160.2,71.1,226,12.1
	C361.2,315.2,365.2,311.2,369,307z"/>
<polygon class="st2" points="425.8,295.1 468.5,236.3 537.6,258.8 494.9,200 537.6,141.3 468.5,163.7 425.8,104.9 425.4,177.4 
	356.7,200 425.4,223 "/>
<path class="st2" d="M369,307c-59,93.3-182.6,121.1-275.9,62S-28,186.4,31,93.1S213.6-28,307,31c25,15.8,46.2,37,62.1,62.1
	C310,27.4,208.8,22,143.1,81S72,241.2,131,307s160.2,71.1,226,12.1C361.2,315.2,365.2,311.2,369,307z"/>
</svg>
